Coordinates
version=1
nRows=9
nColumns=24
inDegrees=yes

Units are S.I. units (second, meters, Newtons, ...)
Angles are in degrees.

endheader
time	pelvis_tilt	pelvis_list	pelvis_rotation	pelvis_tx	pelvis_ty	pelvis_tz	hip_flexion_r	hip_adduction_r	hip_rotation_r	knee_angle_r	ankle_angle_r	subtalar_angle_r	mtp_angle_r	hip_flexion_l	hip_adduction_l	hip_rotation_l	knee_angle_l	ankle_angle_l	subtalar_angle_l	mtp_angle_l	lumbar_extension	lumbar_bending	lumbar_rotation
      4.57500000	     33.07559726	      0.72453194	      2.13092814	     -0.47381229	      0.66371506	     -0.26482080	    -47.03015902	      2.38769308	    -13.36132956	    -19.32281133	     17.63459735	     16.22603456	      0.00000000	    -12.21548021	      0.10600808	    -14.85037589	     -4.28238469	     10.57427399	     16.28529231	      0.00000000	    -60.19143356	     -0.60938566	      6.77854261
      4.58000000	     33.21662454	      0.71008073	      2.00831002	     -0.46758293	      0.66346274	     -0.26513963	    -47.08073568	      2.07770216	    -13.49654389	    -20.58426912	     16.76879946	     16.45450164	      0.00000000	    -12.39490429	      0.10740706	    -14.84672495	     -5.03934794	     10.56737770	     16.39107015	      0.00000000	    -60.15376746	     -0.77283372	      6.66917116
      4.58500000	     33.40374887	      0.64477238	      1.85717486	     -0.46137968	      0.66328263	     -0.26555174	    -47.08329014	      1.74447157	    -13.61055509	    -21.98940861	     15.74313089	     16.74520693	      0.00000000	    -12.66972765	      0.08106625	    -14.79776935	     -5.77232547	     10.53289567	     16.47631802	      0.00000000	    -60.16576695	     -0.89381320	      6.64039543
      4.59000000	     33.60734376	      0.61803487	      1.66818281	     -0.45514743	      0.66314500	     -0.26590444	    -47.03981904	      1.34225460	    -13.74236108	    -23.48388640	     14.61703585	     16.94215669	      0.00000000	    -12.97276475	      0.10456510	    -14.66320375	     -6.56187545	     10.45390111	     16.48880931	      0.00000000	    -60.19356725	     -1.08380426	      6.61111107
      4.59500000	     33.82848779	      0.61454544	      1.46525686	     -0.44892185	      0.66306200	     -0.26626030	    -46.93606125	      0.89147035	    -13.89055949	    -25.08380195	     13.34729367	     17.07001078	      0.00000000	    -13.31153999	      0.16736984	    -14.42470965	     -7.36560432	     10.32890096	     16.42409699	      0.00000000	    -60.24269619	     -1.29731411	      6.56735250
      4.60000000	     34.06669657	      0.63163953	      1.25313213	     -0.44271398	      0.66303596	     -0.26664805	    -46.77045546	      0.39633413	    -14.05269232	    -26.78202680	     11.91723603	     17.10139810	      0.00000000	    -13.68276238	      0.27411096	    -14.05573963	     -8.17629192	     10.15995876	     16.24684524	      0.00000000	    -60.31839451	     -1.52268381	      6.51032050
      4.60500000	     34.34540518	      0.68293619	      1.06161632	     -0.43661684	      0.66304924	     -0.26704590	    -46.56046508	     -0.11287404	    -14.21282766	    -28.57499927	     10.37992771	     16.91102236	      0.00000000	    -14.06710627	      0.43029519	    -13.41911575	     -9.05543686	      9.98999934	     15.77409000	      0.00000000	    -60.46051145	     -1.76439144	      6.46899799
      4.61000000	     34.58161308	      0.78239256	      0.91365997	     -0.43050630	      0.66309226	     -0.26748333	    -46.23837623	     -0.65019893	    -14.45861991	    -30.44312116	      8.68355067	     16.66082616	      0.00000000	    -14.41894414	      0.64141294	    -12.70627734	     -9.91597543	      9.78909242	     15.34022405	      0.00000000	    -60.56267020	     -2.00074314	      6.30988007
      4.61500000	     34.80695447	      0.92346049	      0.80317325	     -0.42446099	      0.66316862	     -0.26799936	    -45.82833870	     -1.20756614	    -14.73189219	    -32.38233926	      6.86424951	     16.25166419	      0.00000000	    -14.74579642	      0.90959882	    -11.84993966	    -10.80270646	      9.59431270	     14.80482586	      0.00000000	    -60.67520369	     -2.21554838	      6.10608657
